<svg width="48" height="48" fill="none" xmlns="http://www.w3.org/2000/svg"><rect width="48" height="48" rx="8" fill="url(#a)"/><path fill-rule="evenodd" clip-rule="evenodd" d="M16.924 17.953c3.605-15.607 3.045-15.435 12.873-2.37 15.258-1.961 15.203-2.18 5.385 10.562 6.432 14.244 6.908 13.738-8.02 8.596-12.108 10.179-11.59 10.522-11.1-4.564-13.556-7.887-13.556-7.342.862-12.224Zm5.918-3.545-1.152 5.113c-.6 2.653-1.007 2.41-7.45 4.251 7.798 3.938 6.634 2.007 6.233 10.675 6.375-6.072 4.37-5.574 12.48-2.376-4.19-7.663-4.19-5.712 1.474-12.495-5.534.795-6.827 1.482-8.432-.759l-3.153-4.409Z" fill="#FFFFFE"/><defs><linearGradient id="a" x1="24" y1="0" x2="24" y2="48" gradientUnits="userSpaceOnUse"><stop stop-color="#D963FF"/><stop offset="1" stop-color="#8C09E4"/></linearGradient></defs></svg>